<svg xmlns="http://www.w3.org/2000/svg" aria-hidden="true" style="position:absolute;width:0;height:0;overflow:hidden">
  <defs>
      <symbol id="mastercard" viewBox="0 0 47 32">
      <path fill="#fafafa" d="M4.267.533h38.4A3.733 3.733 0 0 1 46.4 4.266v23.467a3.733 3.733 0 0 1-3.733 3.733h-38.4a3.733 3.733 0 0 1-3.733-3.733V4.266A3.733 3.733 0 0 1 4.267.533z" style="fill:var(--color1, #fafafa)"/>
      <path fill="#ed0006" d="M23.467 23.29a9.69 9.69 0 0 1-6.331 2.345c-5.39 0-9.76-4.396-9.76-9.818s4.37-9.818 9.76-9.818a9.69 9.69 0 0 1 6.331 2.345 9.69 9.69 0 0 1 6.331-2.345c5.391 0 9.76 4.395 9.76 9.818s-4.37 9.818-9.76 9.818a9.69 9.69 0 0 1-6.331-2.345z" style="fill:var(--color2, #ed0006)"/>
      <path fill="#f9a000" d="M23.467 23.29c2.099-1.801 3.429-4.48 3.429-7.472s-1.331-5.672-3.429-7.472a9.69 9.69 0 0 1 6.331-2.345c5.391 0 9.76 4.395 9.76 9.818s-4.37 9.818-9.76 9.818a9.69 9.69 0 0 1-6.331-2.345z" style="fill:var(--color3, #f9a000)"/>
      <path fill="#ff5e00" d="M23.467 23.29c2.099-1.801 3.429-4.48 3.429-7.472s-1.331-5.672-3.429-7.472c-2.099 1.801-3.429 4.48-3.429 7.472s1.331 5.672 3.429 7.472z" style="fill:var(--color4, #ff5e00)"/>
      <path fill="none" stroke="#fafafa" stroke-width="1.067" d="M4.267.533h38.4A3.733 3.733 0 0 1 46.4 4.266v23.467a3.733 3.733 0 0 1-3.733 3.733h-38.4a3.733 3.733 0 0 1-3.733-3.733V4.266A3.733 3.733 0 0 1 4.267.533z" style="stroke:var(--color1, #fafafa)"/>
    </symbol>
    <symbol id="ua" viewBox="0 0 32 32">
      <path fill="gold" d="M31.832 5.058H.243v23.508h31.589V5.058z" style="fill:var(--color5, #ffd700)"/>
      <path fill="#0057b7" d="M.243 5.058h31.589v11.754H.243V5.058z" style="fill:var(--color6, #0057b7)"/>
    </symbol>
    <symbol id="chocolate" viewBox="0 0 32 32">
      <path fill="#fcf1e0" d="M3.944 20.076 14.721 2.652l.64-.674 8.236 5.491.056 3.314 2.01 3.28-8.88 14.077-12.839-8.063z" style="fill:var(--color1, #fcf1e0)"/>
      <path fill="none" stroke="#fd9222" stroke-linecap="round" stroke-linejoin="round" stroke-width="2.667" d="M21.635 23.88 7.45 15.016m3.911-6.417 14.185 8.864M10.63 25.864l11.736-19.25m4.81 8.175c-3.04-1.899-4.234-3.384-2.278-6.592l-9.626-6.015-11.736 19.25 14.186 8.864 9.454-15.507z" style="stroke:var(--color2, #fd9222)"/>
    </symbol>
    <symbol id="chocolate-bar" viewBox="0 0 32 32">
      <path d="m13.822 2.413 7.527 7.536.08-.08a.856.856 0 0 1 1.184-.013l.873.873c.305.305.315.77.083 1.094l-.004.007-.143.192 6.16 6.16c.55.55.55 1.43 0 1.98l-9.43 9.43c-.55.55-1.43.55-1.98 0l-4.447-4.447a.853.853 0 0 1-.612.317.842.842 0 0 1-.644-.246l-2.6-2.6a.856.856 0 0 1-.013-1.184l.006-.007.077-.076-7.527-7.527c-.55-.55-.55-1.43 0-1.98l9.43-9.43c.55-.55 1.43-.55 1.98 0v.001zm6.582 8.48-1.756-1.755a.59.59 0 0 0-.85 0l-3.58 3.58a.621.621 0 0 0-.179.43.602.602 0 0 0 .179.43l1.749 1.749.61-.61-1.565-1.565 3.21-3.22 1.569 1.574.613-.613zm-5.076 5.072-1.754-1.754a.59.59 0 0 0-.85 0l-3.59 3.59c-.24.23-.24.61 0 .85l1.752 1.752.616-.616-1.57-1.564 3.22-3.21 1.564 1.563.612-.611zM8.822 8.193l3.58 3.58c.24.24.62.24.85-.01l3.58-3.58a.57.57 0 0 0 .18-.42h.01c0-.15-.06-.31-.18-.43l-3.58-3.58a.602.602 0 0 0-.86 0l-3.58 3.59c-.24.23-.24.61 0 .85zm-5.07 5.07 3.58 3.58c.24.24.62.24.85 0l3.58-3.58a.578.578 0 0 0 .18-.43h.01c0-.16-.06-.31-.18-.43l-3.58-3.58a.59.59 0 0 0-.85 0l-3.59 3.59c-.24.23-.24.61 0 .85zm6.933 8.754 2.362 2.363 9.636-13.04-.655-.655-11.343 11.332z" style="fill:var(--color3, #000)"/>
      <path fill="#fd9222" d="m13.822 2.413 7.527 7.536.08-.08a.856.856 0 0 1 1.184-.013l.873.873c.305.305.315.77.083 1.094l-.004.007-.143.192 6.16 6.16c.55.55.55 1.43 0 1.98l-9.43 9.43c-.55.55-1.43.55-1.98 0l-4.447-4.447a.853.853 0 0 1-.612.317.842.842 0 0 1-.644-.246l-2.6-2.6a.856.856 0 0 1-.013-1.184l.006-.007.077-.076-7.527-7.527c-.55-.55-.55-1.43 0-1.98l9.43-9.43c.55-.55 1.43-.55 1.98 0v.001zm6.582 8.48-1.756-1.755a.59.59 0 0 0-.85 0l-3.58 3.58a.621.621 0 0 0-.179.43.602.602 0 0 0 .179.43l1.749 1.749.61-.61-1.565-1.565 3.21-3.22 1.569 1.574.613-.613zm-5.076 5.072-1.754-1.754a.59.59 0 0 0-.85 0l-3.59 3.59c-.24.23-.24.61 0 .85l1.752 1.752.616-.616-1.57-1.564 3.22-3.21 1.564 1.563.612-.611zM8.822 8.193l3.58 3.58c.24.24.62.24.85-.01l3.58-3.58a.57.57 0 0 0 .18-.42h.01c0-.15-.06-.31-.18-.43l-3.58-3.58a.602.602 0 0 0-.86 0l-3.58 3.59c-.24.23-.24.61 0 .85zm-5.07 5.07 3.58 3.58c.24.24.62.24.85 0l3.58-3.58a.578.578 0 0 0 .18-.43h.01c0-.16-.06-.31-.18-.43l-3.58-3.58a.59.59 0 0 0-.85 0l-3.59 3.59c-.24.23-.24.61 0 .85zm6.933 8.754 2.362 2.363 9.636-13.04-.655-.655-11.343 11.332z" style="fill:var(--color2, #fd9222)"/>
    </symbol>
    <symbol id="coin" viewBox="0 0 32 32">
      <path fill="#fd9222" d="M16 2.667c-7.333 0-13.333 6-13.333 13.333s6 13.333 13.333 13.333 13.333-6 13.333-13.333S23.333 2.667 16 2.667zm0 24c-5.867 0-10.667-4.8-10.667-10.667S10.133 5.333 16 5.333 26.667 10.133 26.667 16 21.867 26.667 16 26.667z" style="fill:var(--color2, #fd9222)"/>
      <path fill="#fd9222" d="M17.733 14.667h-3.467c-.667 0-1.2-.533-1.2-1.2s.533-1.2 1.2-1.2h4.933c.8 0 1.333-.533 1.333-1.333s-.533-1.333-1.333-1.333h-1.867v-1.2c0-.8-.533-1.333-1.333-1.333s-1.333.533-1.333 1.333v1.2h-.4c-2.133 0-3.867 1.733-3.867 3.867s1.733 3.867 3.867 3.867h3.333c.667 0 1.2.533 1.2 1.2s-.533 1.2-1.2 1.2h-4.933c-.8 0-1.333.533-1.333 1.333s.533 1.333 1.333 1.333h2v1.2c0 .8.533 1.333 1.333 1.333s1.333-.533 1.333-1.333v-1.2h.4c2.133 0 3.867-1.733 3.867-3.867s-1.733-3.867-3.867-3.867z" style="fill:var(--color2, #fd9222)"/>
    </symbol>
    <symbol id="spoon" viewBox="0 0 32 32">
      <path fill="#fd9222" d="M15.451 14.106a5.154 5.154 0 0 1-1.177-3.282c0-4.324 5.181-8.642 10.362-8.642a5.183 5.183 0 0 1 5.181 5.182c0 5.182-4.317 10.364-8.646 10.364a5.15 5.15 0 0 1-3.281-1.177L5.132 29.312a1.73 1.73 0 0 1-2.445-2.445l12.764-12.761z" style="fill:var(--color2, #fd9222)"/>
    </symbol>
    <symbol id="twitter" viewBox="0 0 32 32">
      <path stroke-linecap="round" stroke-linejoin="round" stroke-width="2.667" d="M30.667 4a14.542 14.542 0 0 1-4.187 2.04 5.975 5.975 0 0 0-6.637-1.661A5.981 5.981 0 0 0 16 10.04v1.333c-2.343.061-4.665-.459-6.759-1.513S4.68 6.297 3.333 4.379c0 0-4.667 12.954 7.333 18.287a15.519 15.519 0 0 1-9.333 2.667C13.333 32 28 25.333 28 10a5.966 5.966 0 0 0-.107-1.107A10.288 10.288 0 0 0 30.666 4z"/>
    </symbol>
    <symbol id="instagram" viewBox="0 0 32 32">
      <path stroke-linecap="round" stroke-linejoin="round" stroke-width="2.667" d="M22.667 2.667H9.334a6.667 6.667 0 0 0-6.667 6.667v13.333a6.667 6.667 0 0 0 6.667 6.667h13.333a6.667 6.667 0 0 0 6.667-6.667V9.334a6.667 6.667 0 0 0-6.667-6.667z"/>
      <path stroke-linecap="round" stroke-linejoin="round" stroke-width="2.667" d="M21.334 15.16a5.329 5.329 0 0 1-2.878 5.546 5.338 5.338 0 0 1-6.169-.992 5.33 5.33 0 0 1 1.316-8.505 5.336 5.336 0 0 1 6.228.962 5.328 5.328 0 0 1 1.504 2.989zM23.333 8.667h.013"/>
    </symbol>
    <symbol id="angle-small" viewBox="0 0 32 32">
      <path d="M16.947 17.867a1.334 1.334 0 0 1-1.894 0l-6.107-6.12a1.334 1.334 0 1 0-1.894 1.88l6.12 6.12a4.001 4.001 0 0 0 5.654 0l6.12-6.12a1.337 1.337 0 0 0-.434-2.172 1.331 1.331 0 0 0-1.46.292l-6.107 6.12z"/>
    </symbol>
    <symbol id="close-btn" viewBox="0 0 32 32">
      <path stroke-linecap="round" stroke-linejoin="round" stroke-width="2.909" d="M24 8 8 24M8 8l16 16"/>
    </symbol>
    <symbol id="menu" viewBox="0 0 32 32">
      <path stroke-linecap="round" stroke-linejoin="round" stroke-width="2.5" d="M4 16h24M4 8h24M4 24h24"/>
    </symbol>
    <symbol id="icon-MasterCard" viewBox="0 0 47 32">
      <path fill="#fafafa" d="M4.267.533h38.4A3.733 3.733 0 0 1 46.4 4.266v23.467a3.733 3.733 0 0 1-3.733 3.733h-38.4a3.733 3.733 0 0 1-3.733-3.733V4.266A3.733 3.733 0 0 1 4.267.533z" style="fill:var(--color1, #fafafa)"/>
      <path fill="#ed0006" d="M23.467 23.29a9.69 9.69 0 0 1-6.331 2.345c-5.39 0-9.76-4.396-9.76-9.818s4.37-9.818 9.76-9.818a9.69 9.69 0 0 1 6.331 2.345 9.69 9.69 0 0 1 6.331-2.345c5.391 0 9.76 4.395 9.76 9.818s-4.37 9.818-9.76 9.818a9.69 9.69 0 0 1-6.331-2.345z" style="fill:var(--color2, #ed0006)"/>
      <path fill="#f9a000" d="M23.467 23.29c2.099-1.801 3.429-4.48 3.429-7.472s-1.331-5.672-3.429-7.472a9.69 9.69 0 0 1 6.331-2.345c5.391 0 9.76 4.395 9.76 9.818s-4.37 9.818-9.76 9.818a9.69 9.69 0 0 1-6.331-2.345z" style="fill:var(--color3, #f9a000)"/>
      <path fill="#ff5e00" d="M23.467 23.29c2.099-1.801 3.429-4.48 3.429-7.472s-1.331-5.671-3.429-7.472c-2.099 1.801-3.429 4.48-3.429 7.472s1.331 5.672 3.429 7.472z" style="fill:var(--color4, #ff5e00)"/>
      <path fill="none" stroke="#fafafa" stroke-width="1.067" d="M4.267.533h38.4A3.733 3.733 0 0 1 46.4 4.266v23.467a3.733 3.733 0 0 1-3.733 3.733h-38.4a3.733 3.733 0 0 1-3.733-3.733V4.266A3.733 3.733 0 0 1 4.267.533z" style="stroke:var(--color1, #fafafa)"/>
    </symbol>
    <symbol id="icon-ukr-number" viewBox="0 0 125 32">
      <path fill="#fafafa" d="M0 0h125v32H0V0z" style="fill:var(--color1, #fafafa)"/>
      <path fill="gold" d="M31.832 5.058H.243v23.508h31.589V5.058z" style="fill:var(--color2, #ffd700)"/>
      <path fill="#0057b7" d="M.243 5.058h31.589v11.754H.243V5.058z" style="fill:var(--color3, #0057b7)"/>
      <path  d="M54.482 19.642v-7.884h1.512v7.884h-1.512zm-3.276-3.222v-1.422h8.064v1.422h-8.064zm13.275 5.724a8.251 8.251 0 0 1-2.592-.414c-.828-.276-1.506-.648-2.034-1.116l.828-1.422c.42.396.966.72 1.638.972s1.392.378 2.16.378c.936 0 1.662-.198 2.178-.594.528-.408.792-.954.792-1.638 0-.66-.252-1.188-.756-1.584-.492-.408-1.278-.612-2.358-.612h-1.008v-1.26l3.744-4.608.252.72h-6.894V9.4h8.316v1.224l-3.726 4.59-.936-.558h.594c1.524 0 2.664.342 3.42 1.026.768.684 1.152 1.554 1.152 2.61 0 .708-.174 1.356-.522 1.944s-.876 1.056-1.584 1.404c-.696.336-1.584.504-2.664.504zm11.003 0c-1.02 0-1.902-.15-2.646-.45s-1.32-.726-1.728-1.278c-.408-.564-.612-1.224-.612-1.98 0-.744.192-1.374.576-1.89.396-.528.966-.924 1.71-1.188.744-.276 1.644-.414 2.7-.414s1.956.138 2.7.414c.756.264 1.332.66 1.728 1.188s.594 1.158.594 1.89c0 .756-.204 1.416-.612 1.98-.408.552-.99.978-1.746 1.278s-1.644.45-2.664.45zm0-1.458c1.008 0 1.794-.204 2.358-.612.576-.42.864-.984.864-1.692 0-.696-.288-1.242-.864-1.638-.564-.408-1.35-.612-2.358-.612-.996 0-1.776.204-2.34.612-.564.396-.846.942-.846 1.638 0 .708.282 1.272.846 1.692.564.408 1.344.612 2.34.612zm0-4.77c-.96 0-1.776-.126-2.448-.378-.672-.264-1.188-.636-1.548-1.116-.36-.492-.54-1.074-.54-1.746 0-.708.186-1.314.558-1.818.384-.516.918-.912 1.602-1.188s1.476-.414 2.376-.414c.912 0 1.71.138 2.394.414s1.218.672 1.602 1.188c.384.504.576 1.11.576 1.818 0 .672-.18 1.254-.54 1.746-.36.48-.882.852-1.566 1.116-.684.252-1.506.378-2.466.378zm0-1.152c.876 0 1.56-.18 2.052-.54.504-.36.756-.852.756-1.476 0-.636-.258-1.134-.774-1.494s-1.194-.54-2.034-.54c-.84 0-1.512.18-2.016.54-.492.36-.738.858-.738 1.494 0 .624.24 1.116.72 1.476.492.36 1.17.54 2.034.54zm11.458 7.38c-.984 0-1.866-.252-2.646-.756-.768-.504-1.38-1.236-1.836-2.196-.444-.96-.666-2.124-.666-3.492s.222-2.532.666-3.492c.456-.96 1.068-1.692 1.836-2.196.78-.504 1.662-.756 2.646-.756.972 0 1.848.252 2.628.756s1.392 1.236 1.836 2.196c.444.96.666 2.124.666 3.492s-.222 2.532-.666 3.492c-.444.96-1.056 1.692-1.836 2.196s-1.656.756-2.628.756zm0-1.602c.66 0 1.236-.18 1.728-.54.504-.36.894-.9 1.17-1.62.288-.72.432-1.614.432-2.682s-.144-1.962-.432-2.682c-.276-.72-.666-1.26-1.17-1.62-.492-.36-1.068-.54-1.728-.54s-1.242.18-1.746.54c-.504.36-.9.9-1.188 1.62-.276.72-.414 1.614-.414 2.682s.138 1.962.414 2.682c.288.72.684 1.26 1.188 1.62s1.086.54 1.746.54z" style="fill:var(--color4, #000)"/>
    </symbol>
    <symbol id="icon-close-black-18dp" viewBox="0 0 32 32">
      <path d="M32 3.223 28.777 0 16 12.777 3.223 0 0 3.223 12.777 16 0 28.777 3.223 32 16 19.223 28.777 32 32 28.777 19.223 16 32 3.223z"/>
    </symbol>
  </defs>
</svg>
